<?xml version="1.0" encoding="utf-8"?>
<svg viewBox="12.824 11.952 448.05 282" width="20" height="12.59" xmlns="http://www.w3.org/2000/svg">
  <path d="M 28.866 63.952 L 444.866 63.952 C 453.666 63.952 460.867 56.752 460.869 47.952 L 460.874 27.952 C 460.875 19.152 453.676 11.952 444.876 11.952 L 28.876 11.952 C 20.076 11.952 12.875 19.152 12.874 27.952 L 12.869 47.952 C 12.867 56.752 20.066 63.952 28.866 63.952 Z M 28.844 183.952 L 444.844 183.952 C 453.644 183.952 460.845 176.752 460.846 167.952 L 460.852 147.952 C 460.853 139.152 453.654 131.952 444.854 131.952 L 28.854 131.952 C 20.054 131.952 12.853 139.152 12.852 147.952 L 12.846 167.952 C 12.845 176.752 20.044 183.952 28.844 183.952 Z M 28.822 293.952 L 444.822 293.952 C 453.622 293.952 460.823 286.752 460.824 277.952 L 460.829 257.952 C 460.831 249.152 453.632 241.952 444.832 241.952 L 28.832 241.952 C 20.032 241.952 12.831 249.152 12.829 257.952 L 12.824 277.952 C 12.823 286.752 20.022 293.952 28.822 293.952 Z" style="" transform="matrix(0.9999999999999999, 0, 0, 0.9999999999999999, 0, -1.4210854715202004e-14)"/>
</svg>